<?xml version="1.0" encoding="UTF-8"?>
<!DOCTYPE svg PUBLIC "-//W3C//DTD SVG 1.1//EN" "http://www.w3.org/Graphics/SVG/1.1/DTD/svg11.dtd">
<!-- Creator: CorelDRAW X6  -->
<svg xmlns="http://www.w3.org/2000/svg" xml:space="preserve"  version="1.1" 
preserveAspectRatio="none"  viewBox="0 0 4250 2100"
 xmlns:xlink="http://www.w3.org/1999/xlink">
 <defs>
  <style type="text/css">
   <![CDATA[
    .str0 {stroke:#BDDBF3;stroke-width:8.46;stroke-linecap:round;stroke-linejoin:round}
    .fil0 {fill:#F2FBFF}
    .fil1 {fill:#BDDBF3;fill-rule:nonzero}
   ]]>
  </style>
 </defs>
 <g id="Слой_x0020_1">
  <metadata id="CorelCorpID_0Corel-Layer"/>
  <path class="fil0 str0" d="M2339 -9089l949 0 0 106 3011 0 0 1688c0,65 -53,118 -118,118l-3936 0c-65,0 -118,-53 -118,-118l0 -1581c0,-130 95,-212 212,-212z"/>
  <path class="fil0 str0" d="M2339 -9089l949 0 0 106 3011 0 0 1688c0,65 -53,118 -118,118l-3936 0c-65,0 -118,-53 -118,-118l0 -1581c0,-130 95,-212 212,-212z"/>
  <g>
   <path class="fil0" d="M224 8l961 0 0 114 3049 0 0 1821c0,70 -54,127 -119,127l-3986 0c-65,0 -119,-57 -119,-127l0 -1705c0,-140 96,-229 215,-229z"/>
   <path id="1" class="fil1" d="M1184 13l-961 0 0 -9 961 0 4 5 -4 5zm0 0l0 -9 0 0 0 0 0 0 0 0 0 0 0 0 0 0 0 0 0 0 0 0 0 0 0 0 0 0 0 0 0 0 0 0 0 0 0 0 0 0 0 0 0 0 0 0 0 0 0 0 0 0 0 0 0 0 0 0 0 0 0 0 0 0 0 0 0 0 0 0 0 0 0 0 0 0 0 0 0 0 0 0 0 0 0 0 0 0 0 0 0 0 0 0 0 0 0 0 0 0 0 0 0 0 0 0 0 0 0 0 0 0 0 0 0 0 0 0 0 0 0 0 0 0 0 0 0 0 0 0zm-4 109l0 -114 9 0 0 114 -4 5 -4 -5zm0 0l9 0 0 0 0 0 0 0 0 0 0 0 0 0 0 0 0 0 0 0 0 0 0 0 0 0 0 0 0 0 0 0 0 0 0 0 0 0 0 0 0 0 0 0 0 0 0 0 0 0 0 0 0 0 0 0 0 0 0 0 0 0 0 0 0 0 0 0 0 0 0 0 0 0 0 0 0 0 0 0 0 0 0 0 0 0 0 0 0 0 0 0 0 0 0 0 0 0 0 0 0 0 0 0 0 0 0 0 0 0 0 0 0 0 0 0 0 0 0 0 0 0 0 0 0 0 0 0 0 0zm3053 5l-3049 0 0 -9 3049 0 4 5 -4 5zm0 0l0 -9 0 0 0 0 0 0 0 0 0 0 0 0 0 0 0 0 0 0 0 0 0 0 0 0 0 0 0 0 0 0 0 0 0 0 0 0 0 0 0 0 0 0 0 0 0 0 0 0 0 0 0 0 0 0 0 0 0 0 0 0 0 0 0 0 0 0 0 0 0 0 0 0 0 0 0 0 0 0 0 0 0 0 0 0 0 0 0 0 0 0 0 0 0 0 0 0 0 0 0 0 0 0 0 0 0 0 0 0 0 0 0 0 0 0 0 0 0 0 0 0 0 0 0 0 0 0 0 0zm-4 1816l0 -1821 9 0 0 1821 0 0 -9 0zm-115 132l0 -9 0 0 6 0 6 0 6 -1 6 -1 6 -1 5 -2 5 -2 5 -2 5 -2 5 -3 5 -3 5 -3 5 -3 4 -4 4 -4 4 -4 4 -4 4 -4 3 -5 3 -5 3 -5 3 -5 3 -5 2 -5 2 -6 2 -6 2 -6 1 -6 1 -6 1 -6 0 -6 0 -6 9 0 0 7 0 7 -1 7 -1 6 -1 6 -2 6 -2 6 -2 6 -3 6 -3 6 -3 6 -3 5 -3 5 -4 5 -4 5 -4 5 -4 4 -4 4 -5 4 -5 4 -5 3 -5 3 -5 3 -5 3 -6 2 -6 2 -6 2 -6 1 -6 1 -6 1 -6 1 -6 0 0 0zm-3986 -9l3986 0 0 9 -3986 0 0 0 0 -9zm-124 -123l9 0 0 0 0 6 0 6 1 6 1 6 1 6 2 6 2 6 2 6 2 5 3 5 3 5 3 5 3 5 3 5 4 4 4 4 4 4 4 4 4 4 5 3 5 3 5 3 5 3 5 2 5 2 5 2 5 2 6 1 6 1 6 1 6 0 6 0 0 9 -6 0 -6 -1 -6 -1 -6 -1 -6 -1 -6 -2 -6 -2 -6 -2 -5 -3 -5 -3 -5 -3 -5 -3 -5 -4 -5 -4 -4 -4 -4 -4 -4 -5 -4 -5 -4 -5 -3 -5 -3 -5 -3 -6 -3 -6 -3 -6 -2 -6 -2 -6 -2 -6 -1 -6 -1 -6 -1 -7 0 -7 0 -7 0 0zm9 -1705l0 1705 -9 0 0 -1705 0 0 9 0zm0 0l-9 0 0 0 0 0 0 0 0 0 0 0 0 0 0 0 0 0 0 0 0 0 0 0 0 0 0 0 0 0 0 0 0 0 0 0 0 0 0 0 0 0 0 0 0 0 0 0 0 0 0 0 0 0 0 0 0 0 0 0 0 0 0 0 0 0 0 0 0 0 0 0 0 0 0 0 0 0 0 0 0 0 0 0 0 0 0 0 0 0 0 0 0 0 0 0 0 0 0 0 0 0 0 0 0 0 0 0 0 0 0 0 0 0 0 0 0 0 0 0 0 0 0 0 0 0 0 0 0 0zm211 -234l0 9 0 0 -11 0 -11 1 -11 1 -10 2 -10 2 -10 3 -10 3 -10 4 -9 4 -9 5 -9 5 -9 5 -8 6 -8 6 -8 7 -7 7 -7 8 -7 8 -6 8 -6 9 -5 9 -5 9 -5 10 -4 10 -4 10 -3 11 -3 11 -2 11 -2 12 -1 12 -1 12 0 13 -9 0 0 -13 1 -13 1 -13 2 -12 2 -12 3 -12 3 -11 4 -11 4 -11 5 -10 5 -10 6 -9 6 -9 7 -9 7 -8 7 -8 8 -7 8 -7 8 -7 9 -6 9 -6 9 -5 9 -5 10 -4 10 -4 10 -3 10 -3 11 -2 11 -2 11 -1 11 -1 11 0 0 0zm0 9l0 -9 0 0 0 0 0 0 0 0 0 0 0 0 0 0 0 0 0 0 0 0 0 0 0 0 0 0 0 0 0 0 0 0 0 0 0 0 0 0 0 0 0 0 0 0 0 0 0 0 0 0 0 0 0 0 0 0 0 0 0 0 0 0 0 0 0 0 0 0 0 0 0 0 0 0 0 0 0 0 0 0 0 0 0 0 0 0 0 0 0 0 0 0 0 0 0 0 0 0 0 0 0 0 0 0 0 0 0 0 0 0 0 0 0 0 0 0 0 0 0 0 0 0 0 0 0 0 0 0z"/>
  </g>
 </g>
</svg>
