<?xml version="1.0" encoding="UTF-8"?>
<!DOCTYPE svg PUBLIC "-//W3C//DTD SVG 1.1//EN" "http://www.w3.org/Graphics/SVG/1.1/DTD/svg11.dtd">
<!-- Creator: CorelDRAW X5 -->
<svg xmlns="http://www.w3.org/2000/svg" xml:space="preserve" width="148mm" height="210mm" style="shape-rendering:geometricPrecision; text-rendering:geometricPrecision; image-rendering:optimizeQuality; fill-rule:evenodd; clip-rule:evenodd"
viewBox="0 0 14800 21000"
 xmlns:xlink="http://www.w3.org/1999/xlink">
 <defs>
  <style type="text/css">
   <![CDATA[
    .fil18 {fill:black}
    .fil29 {fill:#060606}
    .fil12 {fill:#6E2D00}
    .fil11 {fill:#8C3A00}
    .fil28 {fill:#959595}
    .fil13 {fill:#A6601B}
    .fil26 {fill:#A7A7A7}
    .fil15 {fill:#AB6218}
    .fil23 {fill:#ADADAD}
    .fil10 {fill:#BA6B1C}
    .fil22 {fill:silver}
    .fil25 {fill:#CBCBCB}
    .fil27 {fill:#CFCFCF}
    .fil17 {fill:#D0D0D0}
    .fil21 {fill:#D4D4D4}
    .fil14 {fill:#E18B35}
    .fil30 {fill:#E6E6E6}
    .fil20 {fill:#E7E7E7}
    .fil19 {fill:#FAFAFA}
    .fil0 {fill:#FCC536}
    .fil8 {fill:white}
    .fil5 {fill:url(#id6)}
    .fil6 {fill:url(#id7)}
    .fil9 {fill:url(#id8)}
    .fil7 {fill:url(#id9)}
    .fil31 {fill:url(#id10)}
    .fil16 {fill:url(#id11)}
    .fil4 {fill:url(#id12)}
    .fil3 {fill:url(#id13)}
    .fil1 {fill:url(#id14)}
    .fil2 {fill:url(#id15)}
    .fil24 {fill:url(#id16)}
   ]]>
  </style>
     <mask id="id0">
  <radialGradient id="id1" gradientUnits="userSpaceOnUse" cx="6135.05" cy="6165.42" r="272.401" fx="6135.05" fy="6165.42">
   <stop offset="0" style="stop-opacity:0.129412; stop-color:white"/>
   <stop offset="1" style="stop-opacity:0; stop-color:white"/>
  </radialGradient>
      <rect style="fill:url(#id1)" x="6115" y="4208" width="132" height="119"/>
     </mask>
     <mask id="id2">
  <radialGradient id="id3" gradientUnits="userSpaceOnUse" cx="4901.18" cy="4697.08" r="148.264" fx="4901.18" fy="4697.08">
   <stop offset="0" style="stop-opacity:0.156863; stop-color:white"/>
   <stop offset="1" style="stop-opacity:0; stop-color:white"/>
  </radialGradient>
      <rect style="fill:url(#id3)" x="6040" y="4068" width="78" height="108"/>
     </mask>
     <mask id="id4">
  <radialGradient id="id5" gradientUnits="userSpaceOnUse" cx="5985.66" cy="4153.89" r="133.057" fx="5985.66" fy="4153.89">
   <stop offset="0" style="stop-opacity:0.156863; stop-color:white"/>
   <stop offset="1" style="stop-opacity:0; stop-color:white"/>
  </radialGradient>
      <rect style="fill:url(#id5)" x="6152" y="4066" width="72" height="68"/>
     </mask>
  <linearGradient id="id6" gradientUnits="userSpaceOnUse" x1="6160.77" y1="4079.61" x2="6165.13" y2="3998.03">
   <stop offset="0" style="stop-color:#8A3A00"/>
   <stop offset="0.341176" style="stop-color:#FEA000"/>
   <stop offset="1" style="stop-color:#BA6B1C"/>
  </linearGradient>
  <linearGradient id="id7" gradientUnits="userSpaceOnUse" x1="6178.96" y1="4085.98" x2="6158.8" y2="3988.34">
   <stop offset="0" style="stop-color:#E18B35"/>
   <stop offset="0.0784314" style="stop-color:#8A3A00"/>
   <stop offset="0.2" style="stop-color:#7D3400"/>
   <stop offset="0.85098" style="stop-color:#BA6B1C"/>
   <stop offset="1" style="stop-color:#FFF76E"/>
  </linearGradient>
  <linearGradient id="id8" gradientUnits="userSpaceOnUse" x1="6196.46" y1="4066.53" x2="6151.6" y2="3990.91">
   <stop offset="0" style="stop-color:#FFCC00"/>
   <stop offset="1" style="stop-color:#FEFEFE"/>
  </linearGradient>
  <linearGradient id="id9" gradientUnits="userSpaceOnUse" x1="6151.28" y1="3990.04" x2="6187.32" y2="4073.74">
   <stop offset="0" style="stop-color:#FFB811"/>
   <stop offset="0.188235" style="stop-color:#FBD333"/>
   <stop offset="1" style="stop-color:white"/>
  </linearGradient>
  <linearGradient id="id10" gradientUnits="userSpaceOnUse" x1="6234.57" y1="4232.52" x2="6250.05" y2="4195.27">
   <stop offset="0" style="stop-color:#E6E6E6"/>
   <stop offset="1" style="stop-color:#CFCFCF"/>
  </linearGradient>
  <linearGradient id="id11" gradientUnits="userSpaceOnUse" x1="6243.21" y1="4267.45" x2="6247.06" y2="4242.24">
   <stop offset="0" style="stop-color:#9A9A9A"/>
   <stop offset="1" style="stop-color:#CFCFCF"/>
  </linearGradient>
  <linearGradient id="id12" gradientUnits="userSpaceOnUse" x1="6195.37" y1="4058.17" x2="6161.89" y2="4048.15">
   <stop offset="0" style="stop-color:#FBD333"/>
   <stop offset="1" style="stop-color:#FEFEFE"/>
  </linearGradient>
  <linearGradient id="id13" gradientUnits="userSpaceOnUse" x1="6189.08" y1="4068.62" x2="6160.22" y2="4053.86">
   <stop offset="0" style="stop-color:#FEA000"/>
   <stop offset="1" style="stop-color:#FBD333"/>
  </linearGradient>
  <linearGradient id="id14" gradientUnits="userSpaceOnUse" x1="6190.23" y1="4034.54" x2="6171.17" y2="4044.14">
   <stop offset="0" style="stop-color:#FFF76E"/>
   <stop offset="1" style="stop-color:#FFFFCC"/>
  </linearGradient>
  <linearGradient id="id15" gradientUnits="userSpaceOnUse" xlink:href="#id14" x1="6170.57" y1="4008.57" x2="6148.35" y2="4035.65">
  </linearGradient>
  <radialGradient id="id16" gradientUnits="userSpaceOnUse" cx="6189.4" cy="4060.87" r="1116.27" fx="6189.4" fy="4060.87">
   <stop offset="0" style="stop-color:#FEFEFE"/>
   <stop offset="1" style="stop-color:#B5B5B5"/>
  </radialGradient>
 </defs>
 <g id="Слой_x0020_1">
  <metadata id="CorelCorpID_0Corel-Layer"/>
  <g id="_544885904">
   <g>
    <polygon class="fil0" points="6160,3998 6163,3998 6164,3998 6166,3998 6168,3998 6170,3998 6172,3999 6173,3999 6175,3999 6177,4000 6178,4001 6180,4002 6181,4003 6183,4004 6184,4005 6186,4006 6187,4007 6189,4008 6190,4010 6191,4011 6192,4013 6193,4014 6194,4016 6195,4018 6196,4020 6197,4022 6198,4023 6198,4025 6199,4027 6200,4029 6200,4031 6200,4034 6201,4036 6201,4038 6201,4040 6201,4042 6201,4044 6200,4046 6200,4048 6200,4050 6199,4052 6199,4054 6198,4056 6198,4058 6197,4059 6196,4061 6195,4063 6194,4064 6193,4066 6192,4067 6191,4068 6190,4070 6189,4071 6187,4072 6186,4073 6185,4074 6183,4075 6182,4076 6181,4077 6179,4077 6178,4078 6176,4078 6174,4079 6173,4079 6170,4079 6171,4079 6173,4079 6175,4078 6176,4078 6178,4077 6179,4076 6181,4075 6182,4074 6183,4073 6185,4072 6186,4071 6187,4070 6188,4069 6189,4067 6190,4066 6191,4065 6192,4063 6193,4061 6194,4060 6195,4058 6195,4056 6196,4054 6196,4052 6197,4051 6197,4049 6198,4047 6198,4045 6198,4042 6198,4040 6198,4038 6198,4036 6197,4034 6197,4032 6197,4030 6196,4028 6196,4026 6195,4024 6194,4022 6193,4020 6192,4018 6191,4016 6190,4015 6189,4013 6188,4012 6187,4010 6186,4009 6184,4007 6183,4006 6181,4005 6180,4004 6178,4003 6177,4002 6175,4001 6174,4000 6172,4000 6170,3999 6169,3999 6167,3999 6165,3998 6163,3998 6162,3998 "/>
    <polygon class="fil1" points="6173,4079 6176,4079 6177,4078 6179,4078 6180,4078 6182,4077 6183,4077 6185,4076 6186,4075 6188,4074 6189,4073 6190,4072 6192,4071 6193,4070 6194,4069 6195,4068 6196,4066 6197,4065 6198,4063 6199,4062 6200,4060 6201,4059 6202,4057 6202,4055 6203,4054 6204,4052 6204,4050 6204,4048 6205,4046 6205,4044 6205,4042 6205,4040 6206,4038 6205,4036 6205,4034 6205,4032 6205,4030 6205,4028 6204,4026 6204,4025 6203,4023 6202,4021 6202,4019 6201,4017 6200,4016 6199,4014 6198,4013 6197,4011 6196,4010 6195,4008 6194,4007 6192,4006 6191,4005 6190,4004 6188,4002 6187,4002 6185,4001 6184,4000 6182,3999 6180,3999 6179,3998 6177,3998 6175,3998 6174,3997 6172,3997 6170,3997 6168,3997 6166,3998 6164,3998 6162,3998 6164,3998 6166,3998 6167,3998 6169,3998 6171,3998 6173,3998 6175,3998 6176,3999 6178,3999 6180,4000 6181,4000 6183,4001 6184,4002 6186,4003 6187,4004 6188,4005 6190,4006 6191,4007 6192,4009 6193,4010 6195,4011 6196,4013 6197,4015 6197,4016 6198,4018 6199,4019 6200,4021 6200,4023 6201,4025 6202,4027 6202,4029 6202,4031 6203,4033 6203,4035 6203,4037 6203,4039 6203,4041 6203,4043 6203,4045 6202,4047 6202,4049 6202,4050 6201,4052 6200,4054 6200,4056 6199,4057 6198,4059 6198,4061 6197,4062 6196,4064 6195,4065 6194,4067 6193,4068 6192,4069 6190,4070 6189,4071 6188,4073 6187,4074 6185,4074 6184,4075 6182,4076 6181,4077 6179,4077 6178,4078 6176,4078 6175,4079 "/>
    <path class="fil2" d="M6170 4081c9,-1 17,-6 23,-13 6,-7 9,-17 10,-29 0,-11 -4,-22 -10,-29 -6,-8 -15,-13 -25,-13 -10,0 -22,1 -28,10 -6,8 -12,24 -12,36 1,12 8,23 15,30 7,7 18,9 27,8z"/>
    <path class="fil3" d="M6170 4081c9,-1 17,-6 23,-13 6,-7 9,-17 10,-29 0,-11 -4,-21 -9,-29 -4,2 -8,4 -12,6 -30,16 -28,49 -26,63 5,1 10,2 15,1z"/>
    <path class="fil4" d="M6196 4063c1,-2 2,-4 3,-7l-66 -14c0,2 1,4 1,6l61 14z"/>
    <polygon class="fil5" points="6168,4080 6171,4079 6170,4079 6168,4080 6166,4079 6165,4079 6163,4079 6161,4079 6160,4078 6158,4078 6157,4077 6155,4076 6154,4076 6153,4075 6151,4074 6150,4073 6149,4072 6147,4071 6146,4069 6145,4068 6144,4067 6143,4065 6142,4064 6141,4062 6140,4061 6139,4059 6138,4058 6137,4056 6137,4054 6136,4052 6135,4050 6135,4049 6134,4047 6134,4045 6134,4043 6134,4041 6133,4039 6133,4037 6134,4035 6134,4033 6134,4031 6134,4029 6135,4027 6135,4025 6136,4023 6136,4021 6137,4020 6138,4018 6138,4016 6139,4015 6140,4013 6141,4012 6142,4010 6143,4009 6145,4008 6146,4006 6147,4005 6148,4004 6150,4003 6151,4002 6153,4001 6154,4001 6156,4000 6158,3999 6159,3999 6161,3998 6163,3998 6165,3998 6162,3998 6160,3998 6158,3999 6156,3999 6155,3999 6153,4000 6151,4001 6150,4001 6148,4002 6147,4003 6145,4004 6144,4005 6143,4006 6141,4008 6140,4009 6139,4010 6138,4012 6137,4013 6136,4015 6135,4016 6134,4018 6134,4020 6133,4022 6132,4023 6132,4025 6131,4027 6131,4029 6131,4031 6131,4033 6130,4035 6130,4037 6130,4039 6131,4041 6131,4043 6131,4045 6131,4047 6132,4049 6132,4051 6133,4053 6133,4054 6134,4056 6135,4058 6136,4059 6137,4061 6138,4063 6139,4064 6140,4066 6141,4067 6142,4068 6143,4070 6144,4071 6145,4072 6147,4073 6148,4074 6149,4075 6151,4076 6152,4076 6154,4077 6155,4078 6157,4078 6158,4079 6160,4079 6162,4079 6163,4080 6165,4080 6167,4080 "/>
    <polygon class="fil6" points="6157,3990 6166,3988 6168,3988 6170,3987 6173,3987 6175,3987 6177,3988 6179,3988 6181,3989 6183,3989 6185,3990 6187,3991 6189,3992 6191,3993 6193,3994 6195,3995 6196,3997 6198,3998 6200,4000 6201,4002 6203,4004 6204,4005 6206,4007 6207,4010 6208,4012 6209,4014 6210,4016 6211,4018 6212,4021 6212,4023 6213,4026 6214,4028 6214,4031 6214,4033 6214,4036 6214,4037 6215,4039 6214,4040 6214,4041 6214,4042 6214,4044 6214,4045 6214,4046 6214,4047 6214,4049 6213,4050 6213,4051 6213,4052 6213,4053 6212,4054 6212,4056 6212,4057 6211,4058 6211,4059 6210,4060 6210,4061 6210,4062 6209,4063 6209,4064 6208,4065 6207,4066 6207,4067 6206,4068 6206,4069 6205,4070 6204,4070 6204,4071 6202,4073 6201,4074 6200,4076 6198,4077 6197,4078 6195,4080 6193,4081 6192,4082 6190,4083 6188,4083 6186,4084 6184,4085 6182,4085 6173,4087 6175,4086 6177,4086 6179,4085 6181,4084 6182,4083 6184,4082 6186,4081 6187,4080 6189,4079 6190,4078 6192,4076 6193,4075 6195,4073 6195,4072 6196,4071 6196,4070 6197,4069 6198,4069 6198,4068 6199,4067 6199,4066 6200,4065 6200,4064 6201,4063 6201,4062 6202,4061 6202,4059 6202,4058 6203,4057 6203,4056 6203,4055 6204,4054 6204,4053 6204,4051 6204,4050 6205,4049 6205,4048 6205,4047 6205,4045 6205,4044 6205,4043 6205,4042 6205,4040 6205,4039 6205,4038 6205,4035 6205,4032 6204,4030 6204,4027 6203,4025 6203,4022 6202,4020 6201,4018 6200,4016 6199,4013 6198,4011 6196,4009 6195,4007 6194,4005 6192,4003 6191,4002 6189,4000 6187,3999 6185,3997 6184,3996 6182,3995 6180,3994 6178,3993 6176,3992 6174,3991 6172,3990 6170,3990 6168,3989 6165,3989 6163,3989 6161,3989 6159,3989 "/>
    <path class="fil7" d="M6167 4087c-11,0 -21,-4 -28,-12 -8,-8 -13,-19 -15,-32 -2,-13 1,-26 7,-36 6,-10 16,-17 27,-18 12,-1 23,4 32,12 8,9 14,22 15,36 1,14 -4,26 -11,35 -7,9 -17,14 -27,14zm-1 -8c-9,0 -17,-4 -24,-10 -6,-7 -11,-16 -12,-27 -1,-11 1,-21 6,-29 5,-8 13,-14 23,-15 10,-1 19,3 26,10 7,7 12,18 12,29 1,12 -3,22 -9,29 -6,7 -14,12 -23,12z"/>
    <path class="fil8" d="M6126 4021l7 1c1,-3 2,-6 4,-9 2,-3 4,-5 6,-7l-10 -1c-1,1 -1,2 -2,3 -2,4 -4,8 -6,13zm72 14l8 2c-1,-8 -3,-16 -6,-22l-10 -1c5,6 8,14 9,22z"/>
    <path class="fil8" d="M6131 4064l9 2c-2,-2 -4,-5 -5,-8l-8 -2c1,3 2,5 3,7zm48 12l10 2c2,-2 4,-4 5,-6 0,-1 1,-1 1,-2l-8 -2c-2,3 -5,5 -8,7z"/>
    <polygon class="fil9" points="6143,3995 6142,3996 6144,3995 6146,3994 6148,3993 6150,3992 6152,3991 6154,3991 6156,3990 6158,3990 6160,3990 6162,3990 6165,3990 6167,3990 6169,3990 6171,3991 6173,3991 6175,3992 6177,3993 6179,3994 6181,3995 6182,3996 6184,3998 6186,3999 6188,4001 6189,4002 6191,4004 6192,4006 6194,4008 6195,4010 6196,4012 6197,4014 6198,4016 6199,4018 6200,4020 6201,4023 6202,4025 6202,4028 6203,4030 6203,4033 6204,4035 6204,4038 6204,4039 6204,4040 6204,4042 6204,4043 6204,4044 6204,4045 6204,4047 6203,4048 6203,4049 6203,4050 6203,4051 6203,4053 6202,4054 6202,4055 6202,4056 6201,4057 6201,4058 6201,4059 6200,4060 6200,4061 6199,4062 6199,4063 6198,4064 6198,4065 6197,4066 6197,4067 6196,4068 6196,4069 6195,4070 6195,4071 6194,4072 6193,4073 6192,4074 6191,4076 6189,4077 6188,4079 6186,4080 6185,4081 6183,4082 6181,4083 6179,4084 6178,4085 6176,4085 6174,4086 6172,4086 6170,4087 6168,4087 6166,4087 6164,4087 6162,4087 6160,4087 6158,4086 6157,4086 6155,4085 6153,4085 6151,4084 6152,4084 6154,4085 6156,4086 6157,4086 6159,4087 6161,4087 6163,4087 6165,4087 6167,4087 6169,4087 6171,4087 6173,4087 6175,4086 6177,4086 6179,4085 6181,4084 6182,4083 6184,4082 6186,4081 6187,4080 6189,4079 6190,4078 6192,4076 6193,4075 6195,4073 6195,4072 6196,4071 6196,4070 6197,4069 6198,4069 6198,4068 6199,4067 6199,4066 6200,4065 6200,4064 6201,4063 6201,4062 6202,4061 6202,4059 6202,4058 6203,4057 6203,4056 6203,4055 6204,4054 6204,4053 6204,4051 6204,4050 6205,4049 6205,4048 6205,4047 6205,4045 6205,4044 6205,4043 6205,4042 6205,4040 6205,4039 6205,4038 6205,4035 6205,4032 6204,4030 6204,4027 6203,4025 6203,4022 6202,4020 6201,4018 6200,4016 6199,4013 6198,4011 6196,4009 6195,4007 6194,4005 6192,4003 6191,4002 6189,4000 6187,3999 6185,3997 6184,3996 6182,3995 6180,3994 6178,3993 6176,3992 6174,3991 6172,3990 6170,3990 6168,3989 6165,3989 6163,3989 6161,3989 6159,3989 6157,3990 6155,3990 6153,3991 6151,3991 6149,3992 6147,3993 6145,3994 "/>
    <path class="fil8" d="M6157 4078c-18,-5 -26,-22 -27,-35 -2,-13 3,-34 20,-42l-2 1 -1 1 -1 1 -1 1 -1 1 -1 1 -1 1 -1 1 -1 1 -1 2 -1 2 -1 2 -1 2 -1 2 -1 2 -1 2 -1 2 0 2 0 2 0 2 0 2 0 2 0 2 0 2 0 2 0 2 0 2 0 2 0 2 0 2 1 2 1 2 1 2 1 2 1 2 1 2 1 2 1 2 1 1 1 1 1 1 1 1 1 1 1 1 1 1 1 1 1 1 1 1 1 1 1 1 2 1 2 1z"/>
    <g>
     <path class="fil10" d="M6168 3989c0,0 -1,-1 0,-1 2,0 3,-1 5,-1 0,0 1,0 1,1 0,1 0,1 0,1 -2,0 -2,0 -3,0 -1,0 -2,0 -2,-1z"/>
     <path class="fil10" d="M6176 3991c0,-1 0,-1 0,-1 2,0 3,0 5,-1 0,0 1,0 2,1 0,1 0,1 0,1 -2,0 -3,1 -5,1 -1,0 -1,0 -2,-1z"/>
     <path class="fil10" d="M6182 3994c0,-1 0,-1 0,-1 2,0 4,-1 6,-1 0,0 2,0 2,1 0,1 0,1 0,1 -2,0 -4,1 -6,1 -1,0 -2,0 -2,-1z"/>
     <path class="fil11" d="M6189 3999c0,0 0,0 0,0 0,-1 0,-1 0,-1 2,0 4,-1 6,-1 1,0 1,0 2,1 0,1 0,1 0,1 -2,0 -4,1 -6,1 0,0 -1,0 -1,-1z"/>
     <path class="fil11" d="M6195 4005c0,0 0,0 0,0 0,-1 0,-1 1,-1 2,0 4,-1 6,-1 0,0 1,0 1,1 0,0 0,0 0,0 0,1 0,1 -1,1 -2,0 -4,1 -6,1 0,0 -1,0 -1,-1z"/>
     <path class="fil11" d="M6199 4012c0,0 0,0 0,0 0,-1 0,-1 1,-1 2,0 5,-1 7,-1 0,0 1,0 1,1 0,0 0,0 0,0 0,1 0,1 -1,1 -2,0 -5,1 -7,1 0,0 -1,0 -1,-1z"/>
     <path class="fil11" d="M6203 4020c0,0 0,0 0,0 0,-1 0,-1 1,-1 2,0 5,-1 7,-1 0,0 1,0 1,1 0,0 0,0 0,0 0,1 0,1 -1,1 -2,0 -5,1 -7,1 0,0 -1,0 -1,-1z"/>
     <path class="fil12" d="M6205 4028c0,0 0,0 0,0 0,-1 0,-1 1,-1 2,0 4,-1 6,-1 1,0 1,0 1,1 0,0 0,0 0,0 0,1 0,1 -1,1 -2,0 -4,1 -6,1 -1,0 -1,0 -1,-1z"/>
     <path class="fil12" d="M6206 4036c0,0 0,0 0,0 0,-1 0,-1 1,-1 2,0 4,0 6,-1 1,0 1,0 1,1 0,0 0,0 0,0 0,1 0,1 -1,1 -2,0 -4,0 -6,1 -1,0 -1,0 -1,-1z"/>
     <path class="fil12" d="M6206 4045c0,0 0,0 0,0 0,0 1,-1 1,-1 2,0 4,0 6,-1 1,0 1,0 1,1 0,0 0,0 0,0 0,1 -1,1 -1,1 -2,0 -4,0 -6,1 -1,0 -1,0 -1,-1z"/>
     <path class="fil12" d="M6205 4053c0,0 0,0 0,0 0,0 1,-1 1,-1 2,0 3,0 6,-1 1,0 1,0 1,1 0,0 0,0 0,0 0,0 -1,1 -1,1 -2,0 -3,0 -6,1 -1,0 -1,0 -1,-1z"/>
     <path class="fil12" d="M6202 4061c0,0 0,0 0,0 0,0 1,-1 1,-1 2,0 3,0 6,0 1,0 1,0 1,1 0,0 0,0 0,0 0,0 -1,1 -1,1 -2,0 -3,0 -6,0 -1,0 -1,0 -1,-1z"/>
     <path class="fil12" d="M6199 4068c0,0 0,0 0,0 0,0 1,-1 1,-1 2,0 3,0 5,0 1,0 1,0 1,1 0,0 0,0 0,0 0,0 -1,1 -1,1 -2,0 -3,0 -5,0 -1,0 -1,0 -1,-1z"/>
     <path class="fil12" d="M6194 4075c0,0 0,0 0,0 0,0 1,-1 1,-1 2,0 2,0 5,0 1,0 1,0 1,1 0,0 0,0 0,0 0,0 -1,1 -1,1 -2,0 -2,0 -5,0 -1,0 -1,0 -1,-1z"/>
     <path class="fil13" d="M6188 4080c0,0 0,0 0,0 0,0 1,-1 2,-1 2,0 2,0 4,0 1,0 1,0 1,1 0,0 0,0 0,0 0,0 -1,1 -2,1 -2,0 -2,0 -4,0 -1,0 -1,0 -1,-1z"/>
     <path class="fil14" d="M6164 3989c1,0 1,0 2,0 0,0 0,0 0,0l0 0c0,0 0,0 0,-1l-8 1 0 0c0,0 1,0 1,0 1,0 1,0 2,0 1,0 1,0 2,0 0,0 0,0 0,0z"/>
     <path class="fil15" d="M6180 4085c0,0 0,1 1,1 2,0 5,-1 7,-2l0 0c0,-1 -1,-1 -1,-1l-3 0c-1,0 -2,1 -3,2z"/>
    </g>
   </g>
   <g>
    <path class="fil16" d="M6262 4226c-1,5 -5,44 -11,50 -10,10 -23,-24 -22,-31 4,-2 34,-22 33,-19z"/>
    <path class="fil17" d="M6181 4055c56,9 98,52 104,102 11,10 18,23 18,37 0,26 -22,47 -51,52 -18,17 -43,28 -69,31 -13,30 -59,58 -74,42 -5,-5 -1,-19 0,-26 1,-7 4,-21 -9,-34l0 0c-9,-5 -17,-12 -24,-19 -3,15 -15,34 -22,32 -4,-1 2,-26 1,-39 -2,-17 -6,-33 -10,-50l0 0c-3,-12 -3,-24 -1,-37 9,-61 71,-102 137,-91z"/>
    <path class="fil18" style="mask:url(#id0)" d="M6237 4257c-16,10 -34,17 -54,19 -7,17 -24,33 -41,41 -11,-10 -17,-25 -17,-41 0,-32 26,-58 58,-58 25,0 47,16 55,39z"/>
    <path class="fil19" d="M6242 4089c0,-9 6,-20 14,-29 8,-10 19,-17 26,-16 1,0 -4,3 -5,3 0,2 29,-2 31,2 1,2 -11,4 -10,7 0,2 14,-1 21,3 5,2 9,6 12,11 1,2 -8,0 -12,0 -4,1 -8,2 -9,4 -3,3 21,10 25,28 1,3 -20,-8 -21,-2 0,3 10,10 8,11 -1,1 -9,-5 -23,-5 -3,0 -11,8 -13,10 -9,7 -19,5 -28,-2 -5,-3 -17,-20 -17,-26z"/>
    <g>
     <path class="fil20" d="M6243 4092c0,-8 6,-18 13,-26 8,-9 16,-15 22,-14 1,0 -3,2 -3,3 1,1 24,-2 26,1 1,1 -8,3 -7,6 0,2 11,-1 18,2 4,2 8,4 11,8 1,2 -6,1 -10,2 -3,1 -6,3 -7,4 -2,3 18,7 21,22 1,2 -17,-6 -17,-1 0,3 8,9 6,11 -1,1 -8,-2 -19,-1 -3,1 -11,8 -13,9 -9,5 -17,3 -26,-3 -4,-3 -15,-17 -15,-23z"/>
     <path class="fil21" d="M6244 4094c0,-7 5,-16 11,-23 7,-8 13,-12 18,-12 2,0 -1,2 -1,2 2,1 19,-2 21,0 1,1 -5,3 -4,6 0,1 9,0 15,1 3,1 7,1 9,5 1,1 -4,2 -7,3 -2,2 -4,3 -5,5 -1,3 15,4 18,16 1,2 -13,-4 -13,1 0,2 6,8 5,10 -2,1 -6,1 -16,3 -3,2 -11,8 -13,9 -8,4 -16,1 -24,-4 -4,-2 -13,-15 -13,-20z"/>
     <path class="fil22" d="M6246 4097c0,-6 4,-14 10,-20 6,-7 10,-9 14,-10 2,-1 0,2 1,2 3,0 14,-2 16,-1 2,1 -2,3 -1,5 0,1 6,0 11,0 2,0 5,-1 7,2 1,1 -3,3 -4,4 -2,2 -3,4 -3,5 0,3 11,1 14,10 1,2 -9,-2 -9,2 0,2 5,8 3,9 -2,2 -5,3 -12,6 -3,2 -11,8 -14,9 -7,2 -14,-1 -21,-5 -3,-2 -12,-13 -12,-18z"/>
    </g>
    <path class="fil23" d="M6247 4099c0,-5 4,-12 8,-17 5,-6 7,-7 9,-8 2,-1 2,1 4,1 4,0 9,-3 11,-2 2,0 1,2 2,4 0,1 4,0 8,-1 1,0 4,-3 5,-1 0,1 -1,3 -2,5 -1,3 -1,5 -1,6 0,3 8,-1 11,4 1,1 -5,0 -6,3 0,2 3,7 1,9 -2,2 -4,6 -8,10 -3,3 -10,8 -14,8 -7,1 -13,-3 -19,-7 -3,-2 -10,-11 -10,-15z"/>
    <path class="fil24" d="M6181 4055c56,9 98,52 104,102 11,9 18,22 18,36 -9,6 -21,8 -39,8 -47,-1 -85,-34 -113,-36 -25,-2 -49,10 -75,-4 -14,-7 -24,-22 -27,-37 19,-49 73,-79 132,-69z"/>
    <path class="fil18" style="mask:url(#id2)" d="M6090 4166c-4,-1 -9,-3 -13,-5 -14,-7 -24,-22 -27,-37 7,-18 19,-34 34,-46 14,11 23,27 23,46 0,16 -7,31 -18,42z"/>
    <path class="fil19" d="M6144 4054c15,1 33,6 53,19 22,15 11,9 28,29 5,6 18,9 25,4 5,-3 4,-10 2,-16 -18,-18 -43,-31 -71,-36 -13,-2 -26,-2 -38,-1z"/>
    <path class="fil19" d="M6212 4098c7,-15 3,-32 1,-33 -1,0 -2,11 -4,8 -7,-21 -27,-35 -30,-33 -1,1 10,14 6,14 -2,-1 -10,-5 -18,-8 -9,-3 -19,-5 -20,-3 -1,1 10,6 10,10 0,1 -19,-2 -30,-1 -12,2 -22,5 -25,8 -1,2 12,2 15,4 2,1 -9,4 -10,7 0,1 12,0 13,2 0,1 -14,9 -13,12 1,1 17,-3 21,4 1,2 -17,6 -17,16 0,2 21,-2 28,4 1,2 -4,6 -3,9 1,1 22,-9 23,-1 -3,7 -2,11 -1,12 2,1 12,-11 19,-4 3,-17 36,-26 36,-26z"/>
    <circle class="fil25" cx="6206" cy="4137" r="25"/>
    <path class="fil26" d="M6208 4162c-1,0 -1,0 -2,0 -13,0 -24,-10 -25,-24 2,-10 10,-17 21,-17 12,0 21,9 21,21 0,9 -6,17 -14,20z"/>
    <ellipse class="fil25" transform="matrix(0.104894 -0.0439367 0.0439367 0.104894 6272.19 4131.42)" rx="74" ry="167"/>
    <path class="fil27" d="M6242 4157c28,-4 58,9 58,36 0,27 -29,51 -63,51 -34,0 -65,-19 -60,-45 5,-27 34,-37 64,-42z"/>
    <path class="fil8" d="M6242 4157c9,-1 19,-1 27,1 6,4 -21,2 -44,8 -34,8 -43,31 -41,19 11,-17 34,-25 59,-28z"/>
    <ellipse class="fil28" cx="6286" cy="4162" rx="12" ry="9"/>
    <path class="fil26" d="M6264 4120c4,-2 9,4 13,12 3,8 3,16 0,17l0 0c-4,-1 -9,-7 -12,-14 -2,-4 -2,-7 -3,-10 0,-2 1,-4 3,-4z"/>
    <path class="fil29" d="M6274 4148c-3,-2 -7,-7 -9,-13 -1,-2 -2,-5 -2,-7 0,-1 1,-2 2,-3 3,-1 7,3 10,9 3,6 3,12 0,13z"/>
    <path class="fil20" d="M6212 4098c6,-13 3,-28 1,-28 -1,0 -2,10 -4,7 -6,-20 -23,-32 -26,-30 -1,1 6,12 3,11 -2,-1 -9,-5 -16,-8 -9,-4 -17,-5 -18,-3 -1,1 8,7 6,9 0,1 -17,-4 -29,-3 -11,1 -21,3 -24,7 -1,1 9,2 12,4 2,1 -9,4 -10,6 0,1 10,0 12,3 0,1 -14,8 -13,11 1,1 16,-2 20,5 1,2 -16,6 -16,15 0,2 21,-2 27,5 1,2 -4,6 -3,9 1,1 22,-8 22,0 -2,7 -2,11 0,11 2,0 12,-10 18,-4 3,-17 36,-26 36,-26z"/>
    <path class="fil21" d="M6212 4098c5,-12 3,-24 1,-24 -1,0 -2,9 -3,6 -6,-19 -18,-29 -22,-27 -1,1 3,9 0,8 -2,-1 -9,-5 -14,-7 -8,-4 -15,-6 -16,-4 -1,1 6,7 3,9 -1,1 -16,-5 -27,-5 -11,0 -20,2 -23,5 -1,1 7,2 10,4 2,1 -9,3 -9,6 0,1 9,1 10,3 0,1 -13,8 -12,11 1,1 16,-2 19,6 1,2 -15,5 -15,14 0,2 20,-1 26,5 1,2 -4,6 -2,8 1,1 22,-8 22,0 -2,7 -2,11 1,10 2,0 11,-9 17,-3 3,-17 36,-26 36,-26z"/>
    <path class="fil22" d="M6212 4098c3,-10 2,-19 0,-20 -1,0 -2,8 -3,5 -6,-18 -14,-26 -17,-23 -1,1 0,6 -3,5 -2,0 -8,-4 -12,-6 -8,-4 -13,-6 -14,-4 -1,1 3,8 -1,8 -1,0 -15,-6 -25,-7 -10,0 -20,1 -22,4 -1,1 4,2 7,4 2,1 -8,3 -9,5 0,1 7,1 9,4 0,1 -12,7 -11,10 1,1 16,-1 18,6 1,2 -14,5 -14,14 0,2 20,-1 25,6 1,2 -3,6 -2,8 1,1 22,-7 22,1 -1,7 -2,10 1,9 2,0 11,-8 16,-2 3,-17 36,-26 36,-26z"/>
    <path class="fil23" d="M6212 4098c2,-8 2,-15 0,-15 -1,0 -2,6 -3,4 -5,-17 -10,-23 -13,-20 -1,1 -3,3 -6,2 -1,0 -7,-4 -10,-5 -7,-5 -11,-6 -12,-4 -1,1 1,9 -5,7 -1,0 -14,-8 -24,-9 -10,-1 -19,0 -22,3 -1,1 2,2 5,3 2,1 -8,3 -9,5 0,1 6,2 7,4 1,1 -12,7 -11,9 1,1 15,-1 18,7 1,2 -13,5 -13,13 0,2 19,-1 24,6 1,2 -3,6 -2,8 1,1 22,-7 21,1 -1,7 -2,10 2,9 2,-1 10,-7 16,-1 3,-16 36,-26 36,-26z"/>
    <path class="fil18" style="mask:url(#id4)" d="M6212 4098c1,-4 2,-8 2,-11 -1,-1 -2,-2 -2,-3 -1,2 -1,4 -2,2 -1,-2 -1,-3 -2,-5 -5,-3 -11,-5 -17,-5 -16,0 -29,13 -29,29 0,6 2,12 5,17 3,-1 7,-1 10,2 3,-16 36,-26 36,-26z"/>
    <ellipse class="fil29" cx="6201" cy="4142" rx="15" ry="16"/>
    <path class="fil30" d="M6115 4243c-1,1 4,23 4,27 0,7 -4,25 6,25 7,0 23,-26 23,-38 0,-22 -25,-25 -33,-15z"/>
    <path class="fil8" d="M6207 4131c-3,-2 -10,-2 -12,0 -10,7 -6,18 -3,14 2,-3 4,-5 6,-8 6,-5 14,-3 9,-7z"/>
    <path class="fil8" d="M6208 4143c-7,2 -11,13 -2,8 4,-2 6,-9 2,-8z"/>
    <path class="fil8" d="M6265 4128c-2,1 1,11 4,9 1,-1 1,-12 -4,-9z"/>
    <path class="fil8" d="M6222 4119c-12,-10 -29,-4 -29,-1 0,2 10,-8 27,3 11,10 6,27 7,26 5,-5 4,-21 -5,-28z"/>
    <path class="fil8" d="M6215 4130c1,-1 -9,-9 -18,-7 -10,2 -13,9 -12,10 1,1 4,-6 13,-8 10,-2 16,6 17,4z"/>
    <path class="fil8" d="M6220 4145c-1,0 -6,10 -5,10 3,0 7,-10 5,-10z"/>
    <path class="fil8" d="M6263 4117c3,-3 9,2 9,1 1,-1 -3,-3 -4,-4 -6,-2 -6,3 -5,2z"/>
    <path class="fil8" d="M6274 4130c2,7 2,16 3,16 2,0 1,-5 1,-8 -1,-4 -4,-9 -4,-8z"/>
    <path class="fil8" d="M6279 4156c-1,0 -3,2 -2,6 2,4 7,4 10,1 2,-2 7,-2 8,-3 1,-5 -10,-6 -16,-3z"/>
    <path class="fil31" d="M6257 4206c-11,0 -34,-1 -41,-11 -7,-8 -40,26 9,37 35,8 84,-21 70,-30 -2,-1 -33,4 -38,4z"/>
   </g>
  </g>
 </g>
</svg>
